<svg width="40" height="40" viewBox="0 0 40 40" fill="none" xmlns="http://www.w3.org/2000/svg">
<rect width="40" height="40" rx="20" fill="#B1B5C4"/>
<path d="M16.0653 26V24.4773L20.1051 20.517C20.4915 20.1269 20.8134 19.7803 21.071 19.4773C21.3286 19.1742 21.5218 18.8807 21.6506 18.5966C21.7794 18.3125 21.8438 18.0095 21.8438 17.6875C21.8438 17.3201 21.7604 17.0057 21.5938 16.7443C21.4271 16.4792 21.1979 16.2746 20.9062 16.1307C20.6146 15.9867 20.2831 15.9148 19.9119 15.9148C19.5294 15.9148 19.1941 15.9943 18.9062 16.1534C18.6184 16.3087 18.3949 16.5303 18.2358 16.8182C18.0805 17.1061 18.0028 17.4489 18.0028 17.8466H15.9972C15.9972 17.108 16.1657 16.4659 16.5028 15.9205C16.84 15.375 17.304 14.9527 17.8949 14.6534C18.4896 14.3542 19.1714 14.2045 19.9403 14.2045C20.7206 14.2045 21.4063 14.3504 21.9972 14.642C22.5881 14.9337 23.0464 15.3333 23.3722 15.8409C23.7017 16.3485 23.8665 16.928 23.8665 17.5795C23.8665 18.0152 23.7831 18.4432 23.6165 18.8636C23.4498 19.2841 23.1563 19.75 22.7358 20.2614C22.3191 20.7727 21.7339 21.392 20.9801 22.1193L18.9744 24.1591V24.2386H24.0426V26H16.0653Z" fill="#FCFCFD"/>
</svg>
