<svg width="41" height="42" viewBox="0 0 41 42" fill="none" xmlns="http://www.w3.org/2000/svg">
<rect width="41" height="42" rx="20.5" fill="#B1B5C4"/>
<path d="M20.4993 27.1591C19.6811 27.1591 18.9538 27.0189 18.3175 26.7386C17.6849 26.4583 17.1849 26.0682 16.8175 25.5682C16.45 25.0682 16.255 24.4905 16.2322 23.8352H18.3686C18.3875 24.1496 18.4917 24.4242 18.6811 24.6591C18.8705 24.8902 19.1224 25.0701 19.4368 25.1989C19.7512 25.3277 20.1035 25.392 20.4936 25.392C20.9103 25.392 21.2796 25.3201 21.6016 25.1761C21.9235 25.0284 22.1754 24.8239 22.3572 24.5625C22.5391 24.3011 22.6281 24 22.6243 23.6591C22.6281 23.3068 22.5372 22.9962 22.3516 22.7273C22.166 22.4583 21.897 22.2481 21.5447 22.0966C21.1963 21.9451 20.7758 21.8693 20.2834 21.8693H19.255V20.2443H20.2834C20.6887 20.2443 21.0429 20.1742 21.3459 20.0341C21.6527 19.8939 21.8932 19.697 22.0675 19.4432C22.2417 19.1856 22.3269 18.8883 22.3232 18.5511C22.3269 18.2216 22.2531 17.9356 22.1016 17.6932C21.9538 17.447 21.7436 17.2557 21.4709 17.1193C21.2019 16.983 20.8857 16.9148 20.522 16.9148C20.166 16.9148 19.8364 16.9792 19.5334 17.108C19.2304 17.2367 18.986 17.4205 18.8004 17.6591C18.6148 17.8939 18.5163 18.1742 18.505 18.5H16.4766C16.4917 17.8485 16.6792 17.2765 17.0391 16.7841C17.4027 16.2879 17.8875 15.9015 18.4936 15.625C19.0997 15.3447 19.7796 15.2045 20.5334 15.2045C21.3099 15.2045 21.9841 15.3504 22.5561 15.642C23.1319 15.9299 23.5769 16.3182 23.8913 16.8068C24.2057 17.2955 24.3629 17.8352 24.3629 18.4261C24.3667 19.0814 24.1735 19.6307 23.7834 20.0739C23.397 20.517 22.8894 20.8068 22.2607 20.9432V21.0341C23.0788 21.1477 23.7057 21.4508 24.1413 21.9432C24.5807 22.4318 24.7985 23.0398 24.7947 23.767C24.7947 24.4186 24.6091 25.0019 24.2379 25.517C23.8705 26.0284 23.3629 26.4299 22.7152 26.7216C22.0713 27.0133 21.3326 27.1591 20.4993 27.1591Z" fill="#FCFCFD"/>
</svg>
