<svg width="24" height="25" viewBox="0 0 24 25" fill="none" xmlns="http://www.w3.org/2000/svg">
<g id="fluent:grid-24-filled">
<g id="Vector">
<path d="M13 15.75C13 15.1533 13.2371 14.581 13.659 14.1591C14.081 13.7371 14.6533 13.5 15.25 13.5L18.75 13.5C19.3467 13.5 19.919 13.7371 20.341 14.1591C20.7629 14.581 21 15.1533 21 15.75L21 19.25C21 19.8468 20.7629 20.4191 20.341 20.841C19.919 21.263 19.3467 21.5 18.75 21.5L15.25 21.5C14.6533 21.5 14.081 21.263 13.659 20.841C13.2371 20.4191 13 19.8468 13 19.25L13 15.75ZM13 5.75005C13 5.15331 13.2371 4.58101 13.659 4.15906C14.081 3.7371 14.6533 3.50005 15.25 3.50005L18.75 3.50005C19.3467 3.50005 19.919 3.7371 20.341 4.15906C20.7629 4.58101 21 5.15331 21 5.75005L21 9.25004C21 9.84678 20.7629 10.4191 20.341 10.841C19.919 11.263 19.3467 11.5 18.75 11.5L15.25 11.5C14.6533 11.5 14.081 11.263 13.659 10.841C13.2371 10.4191 13 9.84678 13 9.25005L13 5.75005ZM3 15.75C3 15.1533 3.23705 14.581 3.65901 14.1591C4.08097 13.7371 4.65326 13.5 5.25 13.5L8.75 13.5C9.34674 13.5 9.91903 13.7371 10.341 14.1591C10.7629 14.581 11 15.1533 11 15.75L11 19.25C11 19.8468 10.7629 20.4191 10.341 20.841C9.91903 21.263 9.34674 21.5 8.75 21.5L5.25 21.5C4.65326 21.5 4.08097 21.263 3.65901 20.841C3.23705 20.4191 3 19.8468 3 19.25L3 15.75ZM3 5.75005C3 5.15331 3.23705 4.58101 3.65901 4.15906C4.08097 3.7371 4.65326 3.50005 5.25 3.50005L8.75 3.50005C9.34674 3.50005 9.91903 3.7371 10.341 4.15906C10.7629 4.58101 11 5.15331 11 5.75005L11 9.25005C11 9.84678 10.7629 10.4191 10.341 10.841C9.91903 11.263 9.34674 11.5 8.75 11.5L5.25 11.5C4.65326 11.5 4.08097 11.263 3.65901 10.841C3.23705 10.4191 3 9.84678 3 9.25005L3 5.75005Z" fill="#6C7275"/>
<path d="M6 21.5L6 13.502L18 13.502L18 21.5L6 21.5Z" fill="#6C7275"/>
<path d="M6 11.4981L6 3.50005L18 3.50005L18 11.4981L6 11.4981Z" fill="#6C7275"/>
</g>
</g>
</svg>
